#!OML:ASF F:\VICON\USERDATA\INSTALL\rory3\rory3.ASF
:FULLY-SPECIFIED
:DEGREES
448
root 4.66775 17.5767 2.82108 7.56149 -7.67678 -7.97649
lowerback 7.66125 -1.2007 3.20852
upperback 3.02679 -1.34718 1.42328
thorax -1.20459 -0.664914 -0.219056
lowerneck -12.1966 0.427944 -1.08928
upperneck 37.0536 0.642708 0.363922
head 14.8866 0.0973452 0.428582
rclavicle 4.53229e-014 -1.82882e-014
rhumerus -45.5341 5.88856 -37.2438
rradius 57.2476
rwrist -0.41342
rhand -12.7993 -40.8473
rfingers 7.12502
rthumb 13.2867 -70.4038
lclavicle 4.53229e-014 -1.82882e-014
lhumerus -29.0379 0.131811 27.5178
lradius 26.9074
lwrist 6.27693
lhand -26.1184 -38.6885
lfingers 7.12502
lthumb 0.431434 -8.70919
rfemur -95.7061 -3.05188 26.7339
rtibia 116.248
rfoot 50.6865 7.66774
rtoes -8.40469
lfemur -17.0593 1.50084 -20.9291
ltibia 26.1441
lfoot -13.3361 3.72514
ltoes 13.3344
449
root 4.66599 17.5782 2.81635 7.60017 -7.81039 -8.01477
lowerback 7.64829 -1.15862 3.21322
upperback 3.08712 -1.2936 1.43255
thorax -1.13352 -0.637057 -0.217828
lowerneck -12.2668 0.472222 -1.04554
upperneck 37.0149 0.710428 0.331037
head 14.8841 0.128319 0.417993
rclavicle -2.36554e-014 3.97569e-015
rhumerus -45.4139 5.62936 -37.0797
rradius 56.9703
rwrist -0.533939
rhand -12.3921 -41.2675
rfingers 7.12502
rthumb 13.6791 -70.798
lclavicle -2.36554e-014 3.97569e-015
lhumerus -29.208 0.49298 27.4992
lradius 26.9928
lwrist 6.53558
lhand -26.0996 -38.5694
lfingers 7.12502
lthumb 0.449509 -8.59016
rfemur -96.0514 -2.7621 26.8245
rtibia 116.35
rfoot 50.4625 8.14446
rtoes -9.0254
lfemur -17.0762 1.5279 -20.8862
ltibia 26.1176
lfoot -13.337 3.82242
ltoes 13.7931
450
root 4.66272 17.5786 2.80914 7.64322 -7.87749 -8.12164
lowerback 7.6414 -1.14718 3.28185
upperback 3.13566 -1.27496 1.47561
thorax -1.07938 -0.626675 -0.214214
lowerneck -12.3439 0.537389 -1.03083
upperneck 37.0298 0.81915 0.293844
head 14.9086 0.171369 0.41755
rclavicle -1.98785e-016 -4.77083e-015
rhumerus -45.2922 5.51715 -36.9397
rradius 56.6318
rwrist -0.708199
rhand -12.6727 -40.9325
rfingers 7.12502
rthumb 13.4087 -70.481
lclavicle -1.98785e-016 -4.77083e-015
lhumerus -29.3806 0.812747 27.4578
lradius 26.8807
lwrist 6.65341
lhand -26.0085 -38.659
lfingers 7.12502
lthumb 0.537562 -8.67996
rfemur -96.398 -2.49978 27.0364
rtibia 116.417
rfoot 50.4043 8.46521
rtoes -9.58013
lfemur -17.1385 1.67836 -20.7622
ltibia 26.1187
lfoot -13.2974 3.78241
ltoes 13.1211
451
root 4.66279 17.5825 2.80224 7.62883 -7.92025 -8.23766
lowerback 7.69968 -1.13136 3.43172
upperback 3.19028 -1.24229 1.49213
thorax -1.05664 -0.608875 -0.283329
lowerneck -12.4449 0.551107 -1.04517
upperneck 37.0766 0.841889 0.305509
head 14.9545 0.180272 0.429367
rclavicle -4.73108e-014 1.98785e-014
rhumerus -45.2951 5.35283 -36.7942
rradius 56.3105
rwrist -0.823158
rhand -12.647 -41.3185
rfingers 7.12502
rthumb 13.4334 -70.8654
lclavicle -4.73108e-014 1.98785e-014
lhumerus -29.5278 1.18424 27.3402
lradius 26.9304
lwrist 6.62208
lhand -25.6282 -36.1324
lfingers 7.12502
lthumb 0.904801 -6.15453
rfemur -96.6535 -2.3109 27.2406
rtibia 116.419
rfoot 50.6013 8.55822
rtoes -10.037
lfemur -17.1179 1.6925 -20.6326
ltibia 26.1064
lfoot -13.2327 3.80144
ltoes 12.7236
